<svg xmlns="http://www.w3.org/2000/svg" viewBox="0 0 191.89 117.75"><defs><style>.cls-1{fill:#bababa;}</style></defs><g id="Layer_2" data-name="Layer 2"><g id="Layer_1-2" data-name="Layer 1"><path class="cls-1" d="M130,97.58c-16.37-.29-32.21-2.32-47.34-8.3,0,5-.05,9.68,0,14.34.11,9.4-4.45,14.1-13.77,14.11-2.7,0-5.4,0-8.09,0-7.35-.12-12.58-5.84-11.81-13.19.47-4.46,1.26-8.89,2.07-13.31C53.09,80.05,49.8,70.8,40.84,63.88,30.64,56,20.21,48.42,9.86,40.74c-2.4-1.79-5.1-3.26-7.22-5.33C1.29,34.09,0,31.91,0,30.14A36.6,36.6,0,0,1,6.36,9.56C12.13,1.28,21.12-1.62,31.83.85c10.91,2.51,18,9.06,21.41,19.61a5.53,5.53,0,0,1-.25,3.3c-2,5.53-4.24,11-6.05,16.54-1.21,3.76-.22,5.72,3,7.89,18.79,12.56,39,21.73,61.33,26,14.18,2.68,28.44,2.71,42.7,1.2,9.92-1.06,19.78-2.63,29.67-4,3.05-.42,7.36,2.45,8.07,5.37.64,2.62-.72,5.24-3.56,6.53-8.71,4-17.46,7.81-26.15,11.81a2.91,2.91,0,0,0-1.34,2.18c-.1,2.49.1,5,.19,7.49.27,7.67-4.76,12.91-12.46,13-2.8,0-5.6,0-8.4,0a11.86,11.86,0,0,1-11.38-15.08C129,101.12,129.43,99.6,130,97.58ZM35.33,24.34a5.55,5.55,0,0,0-11.09-.17A5.81,5.81,0,0,0,29.87,30,5.74,5.74,0,0,0,35.33,24.34Z"/><path class="cls-1" d="M73.36,49.23c-4.7-2.78-9.1-5.33-13.42-8a2.55,2.55,0,0,1-1-2.06C61.5,24.49,80.85,7.31,96.49,5.94c-1,5.33-2,10.59-3.1,15.84a2.59,2.59,0,0,1-.55,1C86.45,31.5,80.05,40.17,73.36,49.23Z"/><path class="cls-1" d="M104.93,21.71c1-5.31,1.93-10.5,3.06-15.64a2.93,2.93,0,0,1,2.09-1.76,52.61,52.61,0,0,1,29,6.66c1.28.71,1.86,1.38,1.47,3-.9,3.77-1.54,7.61-2.18,11.44-.3,1.86-1,2.91-3.09,3.2-4.44.61-8.82,1.58-13.24,2.33a3.64,3.64,0,0,1-2.25-.24C114.83,27.8,109.92,24.76,104.93,21.71Z"/><path class="cls-1" d="M110.86,63.15l-27.3-8.74L100.11,32c4.2,2.56,8.2,4.95,12.12,7.46a2.42,2.42,0,0,1,1,1.88C112.54,48.33,111.73,55.33,110.86,63.15Z"/><path class="cls-1" d="M151.26,20.33C162.61,31.9,169.11,46,173.57,61.66l-15,2.07c-1.72-5.19-3.41-10.26-5.08-15.34-.5-1.51-.82-3.1-1.46-4.54C148.69,36.3,147.6,28.64,151.26,20.33Z"/><path class="cls-1" d="M138.79,39.49,147,64.62H122.11c.55-5.33,1-10.25,1.6-15.16.29-2.46,0-5.64,1.41-7.12s4.62-1.27,7.06-1.74C134.31,40.19,136.46,39.88,138.79,39.49Z"/></g></g></svg>